<svg xmlns="http://www.w3.org/2000/svg" viewBox="0 0 135.86 212.83"><defs><style>.cls-1{fill:#ed1c24;}.cls-2{fill:#f7931e;}.cls-3{fill:#1a1a1a;}</style></defs><g id="Слой_2" data-name="Слой 2"><g id="Слой_2-2" data-name="Слой 2"><polygon class="cls-1" points="67.95 49.64 8.56 153 38.26 191.72 98.07 195.71 116.65 178.62 132.97 161.54 67.95 49.64"/><polygon class="cls-2" points="67.88 107.58 20.81 189.87 115.52 191.29 67.88 107.58"/><path class="cls-3" d="M128.66,0H100.31V137.21a56.29,56.29,0,0,1-.28,8.23C98.59,163.36,86.33,178,67.93,178s-30.66-14.66-32.1-32.58a56.29,56.29,0,0,1-.28-8.23V0H0V146.93H0a54.19,54.19,0,0,0,1.2,10.43c6.27,30,29.87,55.46,66.72,55.47s60.13-25.52,66.72-55.47a55.37,55.37,0,0,0,1.2-10.43h0V0Z"/></g></g></svg>