<svg xmlns="http://www.w3.org/2000/svg" viewBox="0 0 430.63 254.46"><defs><style>.cls-1{fill:#ed1c24;}.cls-2{fill:#f7931e;}.cls-3{fill:#fff;}</style></defs><g id="Слой_2" data-name="Слой 2"><g id="Слой_9" data-name="Слой 9"><polygon class="cls-1" points="80.45 57.61 8.63 181.19 44.54 227.49 116.88 232.25 139.35 211.83 159.09 191.4 80.45 57.61"/><polygon class="cls-2" points="80.37 126.89 23.43 225.27 137.99 226.97 80.37 126.89"/><path class="cls-3" d="M155.61,0H121.32V164a64.91,64.91,0,0,1-.34,9.84c-1.74,21.43-16.57,39-38.82,39s-37.09-17.53-38.83-39A67.62,67.62,0,0,1,43,164V0H0V175.67H0a64.71,64.71,0,0,0,1.45,12.47c7.59,35.89,36.13,66.3,80.7,66.32s72.72-30.52,80.7-66.32a66.86,66.86,0,0,0,1.44-12.47h0V0Z"/><path class="cls-3" d="M222.27,143.72a6.63,6.63,0,0,1,1.69-4.43l49.58-55.54a43,43,0,0,0,6.69-10.51,25.47,25.47,0,0,0,2.39-10.16V62.9q0-7.59-5-11.77c-3.32-2.79-8.33-3.34-14.45-3.34-5.8,0-10.19.68-13.77,3.73s-5.76,7.37-6.54,12.95v.09H222.27v-.09a44.1,44.1,0,0,1,7.18-18.62,35.16,35.16,0,0,1,14-11.78A46,46,0,0,1,263.29,30Q276,30,285,33.9a29.48,29.48,0,0,1,13.68,11.3q4.68,7.41,4.68,17.88v.09a35.81,35.81,0,0,1-3.12,14,58.93,58.93,0,0,1-8.69,14.13l-32.39,39.19a3.52,3.52,0,0,0,2.68,5.76h34.31a3.51,3.51,0,0,1,3.5,3.48l.15,11.16a3.82,3.82,0,0,1-3.81,3.88H224.79a2.53,2.53,0,0,1-2.52-2.54Z"/><path class="cls-3" d="M407,55.75a35.35,35.35,0,0,0-9.29-13.81A42.81,42.81,0,0,0,382,33.13,72.34,72.34,0,0,0,359.61,30H321a1.9,1.9,0,0,0-1.89,1.9v121a1.89,1.89,0,0,0,1.89,1.89h15.76a1.9,1.9,0,0,0,1.9-1.89V121.18l-.13,0V99.75h.13v-47a1.9,1.9,0,0,1,1.9-1.9l19.55.08c10.45,0,11.74-.76,17.51,2.19C384,56.31,388,62.66,388,71.69c0,4.29.38,8.46-.94,12s-1.92,5.7-4.53,8.28a25.71,25.71,0,0,1-9.32,6.19c-3.87,1.43-10.83,1.15-16.49,1.15h0a1.9,1.9,0,0,0-1.78,1.23l-6.21,16.7a1.89,1.89,0,0,0,1.78,2.56h9.17a69.49,69.49,0,0,0,22.46-4.22c6.27-2.18,10.81-5.63,15.07-9.6a39,39,0,0,0,9.67-14.13,48.07,48.07,0,0,0,3.27-18A50.91,50.91,0,0,0,407,55.75Z"/><path class="cls-3" d="M191.3,221.74a34.45,34.45,0,0,1-9-1.16,23.84,23.84,0,0,1-6.94-2.94l3.51-7.94a24.69,24.69,0,0,0,5.86,2.67,21.88,21.88,0,0,0,6.62,1,13.7,13.7,0,0,0,3.59-.37,4.11,4.11,0,0,0,1.94-1.08,2.43,2.43,0,0,0,.62-1.68,2.21,2.21,0,0,0-1.19-2,11.53,11.53,0,0,0-3.1-1.24c-1.28-.34-2.66-.67-4.16-1a41.82,41.82,0,0,1-4.56-1.22,17.21,17.21,0,0,1-4.21-2,9.39,9.39,0,0,1-3-3.24,9.79,9.79,0,0,1-1.17-5,10.81,10.81,0,0,1,1.84-6.1,12.71,12.71,0,0,1,5.56-4.43,22.8,22.8,0,0,1,9.29-1.67,32.67,32.67,0,0,1,7.32.83,21.45,21.45,0,0,1,6.34,2.52l-3.24,7.88a22.66,22.66,0,0,0-5.34-2.21,20,20,0,0,0-5.13-.71,10.88,10.88,0,0,0-3.57.49,4.18,4.18,0,0,0-1.94,1.24,2.58,2.58,0,0,0-.6,1.62,2.28,2.28,0,0,0,1.19,2,10.77,10.77,0,0,0,3.08,1.18c1.26.31,2.66.63,4.19.95a46.46,46.46,0,0,1,4.56,1.21,18.19,18.19,0,0,1,4.18,1.95,9,9,0,0,1,4.3,8.13,10.63,10.63,0,0,1-1.87,6.07,12.84,12.84,0,0,1-5.59,4.46A22.89,22.89,0,0,1,191.3,221.74Z"/><path class="cls-3" d="M212.47,221v-37.8h10.69V221Z"/><path class="cls-3" d="M230.24,221v-37.8H239l15.6,25.71H250l15.28-25.71h8.8l.06,37.8h-9.83l-.11-22.84h1.68l-11.4,19.12h-4.75L238,198.14h2.05V221Z"/><path class="cls-3" d="M305.67,221l-12.26-37.8h11l10.31,32.73h-5.56L320,183.18h9.82l10.26,32.73h-5.34l10.64-32.73h10.2L343.36,221H331.92l-8.75-27.81h3l-9,27.81Z"/><path class="cls-3" d="M369.5,212.67h19.76V221H359v-37.8h29.59v8.32H369.5Zm-.76-14.85h17.55v7.94H368.74Z"/><path class="cls-3" d="M394.72,221v-37.8h19.22q7.51,0,11.18,2.76a8.51,8.51,0,0,1,3.67,7.13,8.88,8.88,0,0,1-1.51,5.13,10,10,0,0,1-4.32,3.45,16.14,16.14,0,0,1-6.59,1.24l1-2.59a18.37,18.37,0,0,1,6.94,1.22,10.32,10.32,0,0,1,4.64,3.53,9.38,9.38,0,0,1,1.65,5.57,8.78,8.78,0,0,1-4,7.61Q422.68,221,415,221Zm10.53-7.72h9a7.59,7.59,0,0,0,4.21-.94,3.67,3.67,0,0,0,0-5.78,7.58,7.58,0,0,0-4.21-.95h-9.72V198.2h8.1a7.26,7.26,0,0,0,4.05-.92,3.05,3.05,0,0,0,1.35-2.7,3.09,3.09,0,0,0-1.35-2.78,7.37,7.37,0,0,0-4.05-.89h-7.34Z"/></g></g></svg>