<svg xmlns="http://www.w3.org/2000/svg" viewBox="0 0 410.1 254.46"><defs><style>.cls-1{fill:#ed1c24;}.cls-2{fill:#f7931e;}.cls-3{fill:#fff;}</style></defs><g id="Слой_2" data-name="Слой 2"><g id="Слой_9" data-name="Слой 9"><polygon class="cls-1" points="80.45 57.61 8.63 181.19 44.54 227.49 116.88 232.25 139.35 211.83 159.09 191.4 80.45 57.61"/><polygon class="cls-2" points="80.37 126.89 23.43 225.27 137.99 226.97 80.37 126.89"/><path class="cls-3" d="M155.61,0H121.32V164a64.91,64.91,0,0,1-.34,9.84c-1.74,21.43-16.57,39-38.82,39s-37.09-17.53-38.83-39A67.62,67.62,0,0,1,43,164V0H0V175.67H0a64.71,64.71,0,0,0,1.45,12.47c7.59,35.89,36.13,66.3,80.7,66.32s72.72-30.52,80.7-66.32a66.86,66.86,0,0,0,1.44-12.47h0V0Z"/><path class="cls-3" d="M222.27,143.72a6.63,6.63,0,0,1,1.69-4.43l49.58-55.54a43,43,0,0,0,6.69-10.51,25.47,25.47,0,0,0,2.39-10.16V62.9q0-7.59-5-11.77c-3.32-2.79-8.33-3.34-14.45-3.34-5.8,0-10.19.68-13.77,3.73s-5.76,7.37-6.54,12.95v.09H222.27v-.09a44.1,44.1,0,0,1,7.18-18.62,35.16,35.16,0,0,1,14-11.78A46,46,0,0,1,263.29,30Q276,30,285,33.9a29.48,29.48,0,0,1,13.68,11.3q4.68,7.41,4.68,17.88v.09a35.81,35.81,0,0,1-3.12,14,58.93,58.93,0,0,1-8.69,14.13l-32.39,39.19a3.52,3.52,0,0,0,2.68,5.76h34.31a3.51,3.51,0,0,1,3.5,3.48l.15,11.16a3.82,3.82,0,0,1-3.81,3.88H224.79a2.53,2.53,0,0,1-2.52-2.54Z"/><path class="cls-3" d="M407,55.75a35.35,35.35,0,0,0-9.29-13.81A42.81,42.81,0,0,0,382,33.13,72.34,72.34,0,0,0,359.61,30H321a1.9,1.9,0,0,0-1.89,1.9v121a1.89,1.89,0,0,0,1.89,1.89h15.76a1.9,1.9,0,0,0,1.9-1.89V121.18l-.13,0V99.75h.13v-47a1.9,1.9,0,0,1,1.9-1.9l19.55.08c10.45,0,11.74-.76,17.51,2.19C384,56.31,388,62.66,388,71.69c0,4.29.38,8.46-.94,12s-1.92,5.7-4.53,8.28a25.71,25.71,0,0,1-9.32,6.19c-3.87,1.43-10.83,1.15-16.49,1.15h0a1.9,1.9,0,0,0-1.78,1.23l-6.21,16.7a1.89,1.89,0,0,0,1.78,2.56h9.17a69.49,69.49,0,0,0,22.46-4.22c6.27-2.18,10.81-5.63,15.07-9.6a39,39,0,0,0,9.67-14.13,48.07,48.07,0,0,0,3.27-18A50.91,50.91,0,0,0,407,55.75Z"/><path class="cls-3" d="M234.78,225.66v-58.8h16.63v58.8Z"/><path class="cls-3" d="M284.09,225.66H267.46v-58.8h46V179.8h-29.4Zm-1.26-33H310V205.5H282.83Z"/><path class="cls-3" d="M340.37,225.66V200.8l3.86,10-26.37-43.93H335.5l18.9,31.84H344.32l19.06-31.84h16.13l-26.12,43.93,3.61-10v24.86Z"/></g></g></svg>